<svg width="46" height="51" viewBox="0 0 46 51" fill="none" xmlns="http://www.w3.org/2000/svg">
<path fill-rule="evenodd" clip-rule="evenodd" d="M1.23929 41.8779C0.491576 43.472 0.0730464 45.2006 0.008737 46.9602C-0.0378586 48.2351 0.102197 49.5073 0.422279 50.737H3.68839C3.23741 49.4484 3.05636 48.0809 3.1565 46.7194C3.25665 45.3579 3.63586 44.0316 4.27053 42.8229C4.9052 41.6142 5.78177 40.5491 6.84572 39.6937C7.00733 39.5625 7.14125 39.4004 7.23971 39.217C7.33817 39.0336 7.39919 38.8324 7.41924 38.6252C7.78928 34.873 9.54159 31.3926 12.3354 28.8608C15.1292 26.3289 18.7648 24.9266 22.5352 24.9266C26.3055 24.9266 29.9411 26.3289 32.735 28.8608C35.5288 31.3926 37.2811 34.873 37.6511 38.6252C37.6719 38.8329 37.7334 39.0344 37.8323 39.2182C37.9312 39.4021 38.0654 39.5645 38.2273 39.6963C39.38 40.6277 40.3094 41.8056 40.9471 43.1435C41.5847 44.4813 41.9144 45.9451 41.912 47.4271C41.9114 48.5608 41.7171 49.6796 41.3435 50.737H44.6294C44.9102 49.6621 45.0546 48.5501 45.0546 47.4271C45.0587 45.5866 44.6733 43.7661 43.9235 42.0852C43.1738 40.4043 42.0768 38.9012 40.7047 37.6746C40.4413 35.6932 39.8557 33.7683 38.971 31.976C41.4514 27.0659 43.2623 21.8455 44.3553 16.4541C45.1436 12.3635 45.6621 6.78798 43.6509 3.45944C43.1898 2.63966 42.5149 1.96041 41.6981 1.49412C40.8813 1.02784 39.9532 0.792009 39.0129 0.81179C32.5077 0.81179 28.4957 12.0518 26.1989 22.137C23.7801 21.6388 21.285 21.6388 18.8662 22.137C16.5695 12.0518 12.5574 0.81179 6.05221 0.81179C5.11268 0.791234 4.18516 1.02588 3.36842 1.49074C2.55169 1.9556 1.87632 2.63327 1.41425 3.45158C-0.599639 6.78012 -0.0758719 12.3556 0.70978 16.4463C1.8021 21.8403 3.61303 27.0634 6.09411 31.976C5.2086 33.7707 4.62296 35.6984 4.36044 37.6824C3.04856 38.8568 1.98701 40.2838 1.23929 41.8779ZM34.8935 26.5576C33.2364 25.0439 31.3155 23.8473 29.2263 23.0274C31.8582 11.3919 35.6529 3.9544 39.0129 3.9544C39.4117 3.93778 39.807 4.03543 40.1521 4.23586C40.4973 4.43628 40.7781 4.73114 40.9613 5.08573C43.2214 8.80972 41.3541 19.4579 37.0016 28.8412C36.3639 28.0225 35.6587 27.2586 34.8935 26.5576ZM10.1585 26.5497C9.39786 27.2513 8.69707 28.0152 8.06348 28.8334C3.71097 19.4579 1.84374 8.80972 4.10379 5.08573C4.28706 4.73114 4.5678 4.43628 4.91298 4.23586C5.25816 4.03543 5.65341 3.93778 6.05221 3.9544C9.41218 3.9544 13.2069 11.3919 15.8257 23.0195C13.7365 23.8394 11.8156 25.036 10.1585 26.5497Z" fill="#9547A5"/>
<path fill-rule="evenodd" clip-rule="evenodd" d="M41.912 47.4271C41.9144 45.9451 41.5847 44.4813 40.9471 43.1435C40.3094 41.8056 39.38 40.6277 38.2273 39.6963C38.0654 39.5645 37.9312 39.4021 37.8323 39.2182C37.7334 39.0344 37.6719 38.8329 37.6511 38.6252C37.2811 34.873 35.5288 31.3926 32.735 28.8608C29.9411 26.3289 26.3055 24.9266 22.5352 24.9266C18.7648 24.9266 15.1292 26.3289 12.3354 28.8608C9.54159 31.3926 7.78928 34.873 7.41924 38.6252C7.39919 38.8324 7.33817 39.0336 7.23971 39.217C7.14125 39.4004 7.00733 39.5625 6.84572 39.6937C5.78177 40.5491 4.9052 41.6142 4.27053 42.8229C3.63586 44.0316 3.25665 45.3579 3.1565 46.7194C3.05636 48.0809 3.23741 49.4484 3.68839 50.737H41.3435C41.7171 49.6796 41.9114 48.5608 41.912 47.4271ZM17.3773 42.5969C17.6651 42.1662 17.8186 41.6599 17.8186 41.1419C17.8186 40.4473 17.5427 39.7812 17.0516 39.2901C16.5605 38.799 15.8944 38.5231 15.1998 38.5231C14.6819 38.5231 14.1755 38.6767 13.7449 38.9644C13.3142 39.2522 12.9785 39.6612 12.7803 40.1397C12.5821 40.6182 12.5302 41.1448 12.6313 41.6528C12.7323 42.1608 12.9818 42.6274 13.348 42.9937C13.7143 43.36 14.1809 43.6094 14.6889 43.7104C15.1969 43.8115 15.7235 43.7596 16.202 43.5614C16.6805 43.3632 17.0895 43.0275 17.3773 42.5969ZM28.4104 38.9644C28.841 38.6767 29.3473 38.5231 29.8653 38.5231C30.5599 38.5231 31.226 38.799 31.7171 39.2901C32.2082 39.7812 32.4841 40.4473 32.4841 41.1419C32.4841 41.6599 32.3306 42.1662 32.0428 42.5969C31.755 43.0275 31.346 43.3632 30.8675 43.5614C30.389 43.7596 29.8624 43.8115 29.3544 43.7104C28.8464 43.6094 28.3798 43.36 28.0135 42.9937C27.6473 42.6274 27.3978 42.1608 27.2968 41.6528C27.1957 41.1448 27.2476 40.6182 27.4458 40.1397C27.644 39.6612 27.9797 39.2522 28.4104 38.9644Z" fill="#9547A5"/>
<path d="M8.06348 28.8334C8.69707 28.0152 9.39786 27.2513 10.1585 26.5497C11.8156 25.036 13.7365 23.8394 15.8257 23.0195C13.2069 11.3919 9.41218 3.9544 6.05221 3.9544C5.65341 3.93778 5.25816 4.03543 4.91298 4.23586C4.5678 4.43628 4.28706 4.73114 4.10379 5.08573C1.84374 8.80972 3.71097 19.4579 8.06348 28.8334Z" fill="#9547A5"/>
<path d="M29.2263 23.0274C31.3155 23.8473 33.2364 25.0439 34.8935 26.5576C35.6587 27.2586 36.3639 28.0225 37.0016 28.8412C41.3541 19.4579 43.2214 8.80972 40.9613 5.08573C40.7781 4.73114 40.4973 4.43628 40.1521 4.23586C39.807 4.03543 39.4117 3.93778 39.0129 3.9544C35.6529 3.9544 31.8582 11.3919 29.2263 23.0274Z" fill="#9547A5"/>
</svg>
