<svg width="14" height="14" viewBox="0 0 14 14" fill="none" xmlns="http://www.w3.org/2000/svg">
<path d="M5.74623 0.793562C5.97642 0.631121 6.25147 0.544233 6.53326 0.544935C6.81506 0.545637 7.08966 0.633893 7.31904 0.797479C7.55156 0.967193 7.72792 1.20218 7.82458 1.47372L8.40851 3.26616C8.55835 3.71544 8.81066 4.12374 9.14551 4.45883C9.48036 4.79393 9.88858 5.04663 10.3379 5.19699L12.155 5.78446C12.4237 5.88166 12.655 6.06066 12.8165 6.29623C12.978 6.53179 13.0614 6.81205 13.0551 7.09752C13.0487 7.38299 12.9529 7.65927 12.7811 7.88744C12.6093 8.1156 12.3703 8.28415 12.0975 8.36933L10.3014 8.95419C9.85156 9.10377 9.44274 9.35584 9.1072 9.69049C8.77165 10.0251 8.51859 10.4332 8.36801 10.8824L7.77756 12.6944C7.68248 12.9614 7.50651 13.1921 7.27412 13.3544C7.04174 13.5168 6.7645 13.6027 6.48097 13.6003C6.19744 13.5978 5.92172 13.5072 5.69217 13.3408C5.46262 13.1745 5.29065 12.9408 5.20019 12.6722L4.6032 10.8445C4.45334 10.4074 4.20619 10.0099 3.88036 9.682C3.55452 9.35411 3.1585 9.10437 2.72211 8.95158L0.906327 8.36803C0.63931 8.27281 0.408583 8.09687 0.246178 7.86464C0.0837725 7.6324 -0.00225299 7.3554 4.48626e-05 7.07208C0.00234271 6.78876 0.0928497 6.51319 0.259001 6.28362C0.425151 6.05404 0.658702 5.88187 0.927228 5.79099L2.72211 5.21004C3.17419 5.06011 3.58475 4.80624 3.92077 4.46885C4.25678 4.13146 4.50888 3.71997 4.65676 3.26747L5.24722 1.45153C5.34127 1.18521 5.51632 0.955442 5.74623 0.793562Z" fill="#9547A5"/>
</svg>
