<svg width="932" height="24" viewBox="0 0 932 24" fill="none" xmlns="http://www.w3.org/2000/svg">
<path d="M12.001 9C11.2054 9 10.4423 9.31607 9.87968 9.87868C9.31707 10.4413 9.001 11.2044 9.001 12C9.001 12.7957 9.31707 13.5587 9.87968 14.1213C10.4423 14.6839 11.2054 15 12.001 15C12.7967 15 13.5597 14.6839 14.1223 14.1213C14.6849 13.5587 15.001 12.7957 15.001 12C15.001 11.2044 14.6849 10.4413 14.1223 9.87868C13.5597 9.31607 12.7967 9 12.001 9ZM12.001 7C13.3271 7 14.5989 7.52678 15.5365 8.46447C16.4742 9.40215 17.001 10.6739 17.001 12C17.001 13.3261 16.4742 14.5979 15.5365 15.5355C14.5989 16.4732 13.3271 17 12.001 17C10.6749 17 9.40315 16.4732 8.46547 15.5355C7.52779 14.5979 7.001 13.3261 7.001 12C7.001 10.6739 7.52779 9.40215 8.46547 8.46447C9.40315 7.52678 10.6749 7 12.001 7ZM18.501 6.75C18.501 7.08152 18.3693 7.39946 18.1349 7.63388C17.9005 7.8683 17.5825 8 17.251 8C16.9195 8 16.6015 7.8683 16.3671 7.63388C16.1327 7.39946 16.001 7.08152 16.001 6.75C16.001 6.41848 16.1327 6.10054 16.3671 5.86612C16.6015 5.6317 16.9195 5.5 17.251 5.5C17.5825 5.5 17.9005 5.6317 18.1349 5.86612C18.3693 6.10054 18.501 6.41848 18.501 6.75ZM12.001 4C9.527 4 9.123 4.007 7.972 4.058C7.188 4.095 6.662 4.2 6.174 4.39C5.76583 4.54037 5.39672 4.78064 5.094 5.093C4.78127 5.39562 4.54066 5.76474 4.39 6.173C4.2 6.663 4.095 7.188 4.059 7.971C4.007 9.075 4 9.461 4 12C4 14.475 4.007 14.878 4.058 16.029C4.095 16.812 4.2 17.339 4.389 17.826C4.559 18.261 4.759 18.574 5.091 18.906C5.428 19.242 5.741 19.443 6.171 19.609C6.665 19.8 7.191 19.906 7.971 19.942C9.075 19.994 9.461 20 12 20C14.475 20 14.878 19.993 16.029 19.942C16.811 19.905 17.337 19.8 17.826 19.611C18.2342 19.4606 18.6033 19.2204 18.906 18.908C19.243 18.572 19.444 18.259 19.61 17.828C19.8 17.336 19.906 16.81 19.942 16.028C19.994 14.925 20 14.538 20 12C20 9.526 19.993 9.122 19.942 7.971C19.905 7.189 19.799 6.661 19.61 6.173C19.4596 5.76483 19.2194 5.39572 18.907 5.093C18.6044 4.78027 18.2353 4.53966 17.827 4.389C17.337 4.199 16.811 4.094 16.029 4.058C14.926 4.006 14.54 4 12 4M12 2C14.717 2 15.056 2.01 16.123 2.06C17.187 2.11 17.913 2.277 18.55 2.525C19.21 2.779 19.766 3.123 20.322 3.678C20.8307 4.17773 21.2242 4.78247 21.475 5.45C21.722 6.087 21.89 6.813 21.94 7.878C21.987 8.944 22 9.283 22 12C22 14.717 21.99 15.056 21.94 16.122C21.89 17.188 21.722 17.912 21.475 18.55C21.2242 19.2175 20.8307 19.8223 20.322 20.322C19.8223 20.8307 19.2175 21.2242 18.55 21.475C17.913 21.722 17.187 21.89 16.123 21.94C15.056 21.987 14.717 22 12 22C9.283 22 8.944 21.99 7.877 21.94C6.813 21.89 6.088 21.722 5.45 21.475C4.78247 21.2242 4.17773 20.8307 3.678 20.322C3.16931 19.8223 2.77582 19.2175 2.525 18.55C2.277 17.913 2.11 17.187 2.06 16.122C2.012 15.056 2 14.717 2 12C2 9.283 2.01 8.944 2.06 7.878C2.11 6.812 2.277 6.088 2.525 5.45C2.77582 4.78247 3.16931 4.17773 3.678 3.678C4.17773 3.16931 4.78247 2.77582 5.45 2.525C6.087 2.277 6.812 2.11 7.877 2.06C8.945 2.013 9.284 2 12.001 2" fill="#F8FBFB"/>
<path fill-rule="evenodd" clip-rule="evenodd" d="M58.9341 2.93414C60.0125 1.8558 61.475 1.25 63 1.25H66C66.4142 1.25 66.75 1.58579 66.75 2V6C66.75 6.41421 66.4142 6.75 66 6.75H63C62.9337 6.75 62.8701 6.77634 62.8232 6.82322C62.7763 6.87011 62.75 6.9337 62.75 7V9.25H66C66.231 9.25 66.449 9.35641 66.5912 9.53844C66.7333 9.72048 66.7836 9.95785 66.7276 10.1819L65.7276 14.1819C65.6441 14.5158 65.3442 14.75 65 14.75H62.75V22C62.75 22.4142 62.4142 22.75 62 22.75H58C57.5858 22.75 57.25 22.4142 57.25 22V14.75H55C54.5858 14.75 54.25 14.4142 54.25 14V10C54.25 9.58579 54.5858 9.25 55 9.25H57.25V7C57.25 5.47501 57.8558 4.01247 58.9341 2.93414ZM63 2.75C61.8728 2.75 60.7918 3.19777 59.9948 3.9948C59.1978 4.79183 58.75 5.87283 58.75 7V10C58.75 10.4142 58.4142 10.75 58 10.75H55.75V13.25H58C58.4142 13.25 58.75 13.5858 58.75 14V21.25H61.25V14C61.25 13.5858 61.5858 13.25 62 13.25H64.4144L65.0394 10.75H62C61.5858 10.75 61.25 10.4142 61.25 10V7C61.25 6.53587 61.4344 6.09075 61.7626 5.76256C62.0908 5.43438 62.5359 5.25 63 5.25H65.25V2.75H63Z" fill="#F8FBFB"/>
<path d="M113.75 2.9375H116.817L110.117 10.6146L118 21.0632H111.829L106.991 14.7275L101.463 21.0632H98.3929L105.559 12.8489L98 2.93893H104.329L108.694 8.72893L113.75 2.9375ZM112.671 19.2232H114.371L103.4 4.68179H101.577L112.671 19.2232Z" fill="#F8FBFB"/>
<path d="M152.52 13.8461C151.48 13.8461 150.632 12.9011 150.632 11.7451C150.632 10.5891 151.459 9.64306 152.521 9.64306C153.571 9.64306 154.431 10.5881 154.41 11.7451C154.41 12.9011 153.571 13.8461 152.52 13.8461ZM159.494 13.8451C158.454 13.8451 157.604 12.9001 157.604 11.7441C157.604 10.5881 158.433 9.64206 159.494 9.64206C160.544 9.64206 161.404 10.5871 161.384 11.7441C161.384 12.9001 160.555 13.8451 159.494 13.8451ZM154.125 4.32106L153.817 3.75806L153.183 3.86406C151.746 4.10418 150.348 4.53463 149.025 5.14406L148.797 5.24906L148.655 5.45906C146.042 9.31206 145.325 13.1071 145.68 16.8341L145.719 17.2411L146.049 17.4811C147.586 18.6091 149.303 19.4689 151.127 20.0241L151.917 20.2661L153.03 17.5501C154.94 18.0221 157.06 18.0221 158.969 17.5501L160.076 20.2671L160.866 20.0251C162.692 19.4713 164.409 18.6107 165.946 17.4801L166.273 17.2421L166.313 16.8401C166.749 12.5201 165.616 8.75706 163.355 5.45606L163.213 5.24806L162.985 5.14406C161.662 4.53716 160.266 4.10681 158.831 3.86406L158.213 3.76106L157.899 4.30306C157.811 4.45306 157.722 4.62306 157.636 4.79606C156.551 4.68486 155.458 4.68486 154.373 4.79606C154.288 4.62606 154.203 4.46206 154.125 4.32106ZM150.715 16.6101C150.912 16.7241 151.12 16.8361 151.325 16.9381L150.876 18.0341C149.662 17.5916 148.509 16.9939 147.448 16.2561C147.223 13.1181 147.861 9.95106 150.012 6.68606C150.92 6.28659 151.866 5.98067 152.836 5.77306C152.896 5.89806 152.952 6.02106 152.998 6.12906L153.271 6.77206L153.963 6.67106C155.319 6.47227 156.697 6.47227 158.053 6.67106L158.743 6.77106L159.015 6.12906C159.062 6.01706 159.117 5.89506 159.175 5.77306C160.152 5.98306 161.098 6.29306 162.003 6.68806C163.878 9.50806 164.824 12.6541 164.549 16.2551C163.487 16.9935 162.334 17.5914 161.119 18.0341L160.674 16.9391C160.88 16.8371 161.088 16.7251 161.287 16.6101C161.777 16.3281 162.304 15.9761 162.64 15.6401L161.36 14.3601C161.197 14.5241 160.837 14.7801 160.383 15.0421C159.939 15.2981 159.498 15.5051 159.216 15.5981C157.213 16.2611 154.788 16.2611 152.784 15.5981C152.503 15.5051 152.062 15.2981 151.618 15.0421C151.164 14.7811 150.804 14.5241 150.64 14.3601L149.36 15.6401C149.697 15.9761 150.225 16.3281 150.715 16.6101Z" fill="#F8FBFB"/>
<g clip-path="url(#clip0_3244_3248)">
<path d="M204 2C209.523 2 214 6.477 214 12C214 17.523 209.523 22 204 22C202.298 22.0024 200.624 21.5686 199.137 20.74L198.832 20.562L195.8 21.454C195.635 21.5026 195.46 21.5083 195.293 21.4705C195.125 21.4327 194.969 21.3526 194.841 21.238C194.713 21.1233 194.616 20.9778 194.56 20.8152C194.504 20.6526 194.49 20.4784 194.52 20.309L194.546 20.2L195.438 17.168C194.495 15.6093 193.998 13.8218 194 12C194 6.477 198.477 2 204 2ZM204 4C202.568 3.99974 201.161 4.38406 199.928 5.11281C198.695 5.84157 197.68 6.88804 196.99 8.14294C196.299 9.39784 195.958 10.8151 196.002 12.2468C196.047 13.6785 196.474 15.0721 197.241 16.282C197.439 16.594 197.524 16.978 197.457 17.359L197.418 17.522L196.977 19.023L198.478 18.582C198.911 18.454 199.361 18.532 199.718 18.759C200.766 19.4228 201.955 19.8336 203.189 19.959C204.424 20.0844 205.67 19.921 206.831 19.4816C207.991 19.0422 209.033 18.3389 209.875 17.4273C210.717 16.5157 211.335 15.4208 211.681 14.2291C212.027 13.0374 212.09 11.7817 211.867 10.5611C211.644 9.34053 211.14 8.1886 210.395 7.19638C209.65 6.20415 208.684 5.39883 207.574 4.84408C206.465 4.28933 205.241 4.00036 204 4ZM201.102 7.184C201.213 7.13654 201.334 7.11851 201.454 7.13165C201.574 7.14479 201.688 7.18866 201.786 7.259C202.29 7.627 202.69 8.121 203.034 8.603L203.361 9.077L203.514 9.302C203.603 9.43096 203.646 9.58557 203.638 9.74182C203.629 9.89806 203.57 10.0472 203.468 10.166L203.393 10.242L202.469 10.928C202.425 10.9606 202.394 11.0078 202.382 11.0611C202.37 11.1145 202.377 11.1705 202.402 11.219C202.612 11.599 202.983 12.166 203.409 12.592C203.836 13.018 204.429 13.414 204.835 13.647C204.923 13.697 205.029 13.681 205.101 13.616L205.139 13.571L205.74 12.656C205.85 12.5088 206.013 12.4101 206.195 12.3806C206.376 12.3512 206.562 12.3932 206.713 12.498L207.256 12.877C207.796 13.262 208.315 13.676 208.726 14.201C208.802 14.2997 208.85 14.4168 208.866 14.5404C208.882 14.664 208.864 14.7895 208.815 14.904C208.419 15.828 207.416 16.615 206.374 16.577L206.215 16.567L206.024 16.549L205.916 16.535L205.678 16.495C204.754 16.321 203.273 15.797 201.738 14.263C200.204 12.728 199.68 11.247 199.506 10.323L199.466 10.085L199.441 9.877L199.428 9.702L199.424 9.627C199.386 8.583 200.177 7.58 201.102 7.184Z" fill="#F8FBFB"/>
</g>
<path fill-rule="evenodd" clip-rule="evenodd" d="M245 6C244.735 6 244.48 6.10536 244.293 6.29289C244.22 6.36608 244.159 6.44944 244.112 6.53966L252 11.7981L259.888 6.53965C259.841 6.44944 259.78 6.36608 259.707 6.29289C259.52 6.10536 259.265 6 259 6H245ZM260 8.86852L252.555 13.8321C252.219 14.056 251.781 14.056 251.445 13.8321L244 8.86852V17C244 17.2652 244.105 17.5196 244.293 17.7071C244.48 17.8946 244.735 18 245 18H259C259.265 18 259.52 17.8946 259.707 17.7071C259.895 17.5196 260 17.2652 260 17V8.86852ZM242.879 4.87868C243.441 4.31607 244.204 4 245 4H259C259.796 4 260.559 4.31607 261.121 4.87868C261.684 5.44129 262 6.20435 262 7V17C262 17.7957 261.684 18.5587 261.121 19.1213C260.559 19.6839 259.796 20 259 20H245C244.204 20 243.441 19.6839 242.879 19.1213C242.316 18.5587 242 17.7956 242 17V7C242 6.20435 242.316 5.44129 242.879 4.87868Z" fill="#F8FBFB"/>
<defs>
<clipPath id="clip0_3244_3248">
<rect width="24" height="24" fill="white" transform="translate(192)"/>
</clipPath>
</defs>
</svg>
